<svg width="33" height="35" viewBox="0 0 33 35" fill="none" xmlns="http://www.w3.org/2000/svg">
<circle cx="16.5" cy="18.5" r="16.5" fill="white"/>
<circle cx="16.5" cy="18.5" r="16" stroke="black" stroke-opacity="0.25"/>
<path d="M17.756 26.0001H15.213C14.9858 26.0001 14.776 25.8729 14.6624 25.6667C14.5489 25.4605 14.5489 25.2063 14.6624 25.0001C14.776 24.7938 14.9858 24.6667 15.213 24.6667H17.756C17.9831 24.6667 18.1929 24.7938 18.3065 25.0001C18.4201 25.2063 18.4201 25.4605 18.3065 25.6667C18.1929 25.8729 17.9831 26.0001 17.756 26.0001Z" fill="#9867E9"/>
<path d="M23.4776 23.3335H9.49141C9.3002 23.3323 9.11965 23.2409 8.99973 23.0848C8.87995 22.9285 8.83352 22.7239 8.8733 22.5279C8.91323 22.3318 9.03508 22.1649 9.20528 22.0736C9.48329 21.9289 9.71709 21.7054 9.87987 21.4285C10.0428 21.1515 10.1284 20.8322 10.1271 20.5069V16.6668C10.1271 14.8987 10.7968 13.203 11.9892 11.9527C13.1813 10.7023 14.7983 10 16.4846 10C18.1706 10 19.7876 10.7023 20.9799 11.9527C22.1722 13.2028 22.842 14.8985 22.842 16.6668V20.5069C22.8407 20.8322 22.9263 21.1515 23.0892 21.4285C23.2522 21.7054 23.4858 21.9289 23.7638 22.0736C23.934 22.1649 24.0559 22.3318 24.0958 22.5279C24.1356 22.7239 24.0891 22.9285 23.9694 23.0848C23.8494 23.2409 23.669 23.3323 23.4778 23.3335H23.4776ZM11.0363 22.0002H21.9327C21.6926 21.5429 21.5679 21.0288 21.5703 20.5069V16.6668C21.5703 14.7614 20.601 13.0007 19.0273 12.0479C17.4538 11.0952 15.515 11.0952 13.9414 12.0479C12.3678 13.0007 11.3983 14.7613 11.3983 16.6668V20.5069C11.4007 21.0288 11.2761 21.5429 11.0361 22.0002H11.0363Z" fill="#9867E9"/>
<circle cx="6.5" cy="4.5" r="4.5" fill="#F24C15"/>
<path d="M6.04961 6.65493V2.65493L6.33943 2.99296L5.22715 3.5L5 2.69718L6.49608 2H7.06005V6.65493H6.04961ZM5.13316 7V6.15493H8V7H5.13316Z" fill="white"/>
</svg>
